G04 MADE WITH FRITZING*
G04 WWW.FRITZING.ORG*
G04 DOUBLE SIDED*
G04 HOLES PLATED*
G04 CONTOUR ON CENTER OF CONTOUR VECTOR*
%ASAXBY*%
%FSLAX23Y23*%
%MOIN*%
%OFA0B0*%
%SFA1.0B1.0*%
%ADD10C,0.070000*%
%ADD11C,0.078000*%
%ADD12C,0.074000*%
%ADD13C,0.055000*%
%ADD14C,0.075000*%
%ADD15C,0.060000*%
%ADD16C,0.066000*%
%ADD17C,0.138425*%
%ADD18C,0.126614*%
%ADD19C,0.039370*%
%ADD20R,0.069972X0.070000*%
%ADD21R,0.078000X0.078000*%
%ADD22R,0.075000X0.075000*%
%ADD23C,0.024000*%
%ADD24R,0.001000X0.001000*%
%LNCOPPER0*%
G90*
G70*
G54D10*
X2551Y2422D03*
X2551Y2522D03*
X2551Y2622D03*
X2551Y2722D03*
X2551Y2822D03*
X2551Y2922D03*
X2551Y3022D03*
X2551Y3122D03*
X2551Y3222D03*
X2551Y3322D03*
X2551Y3422D03*
X2551Y3522D03*
X2551Y3622D03*
X2551Y3722D03*
X2551Y3822D03*
X1951Y2422D03*
X1951Y2522D03*
X1951Y2622D03*
X1951Y2722D03*
X1951Y2822D03*
X1951Y2922D03*
X1951Y3022D03*
X1951Y3122D03*
X1951Y3222D03*
X1951Y3322D03*
X1951Y3422D03*
X1951Y3522D03*
X1951Y3622D03*
X1951Y3722D03*
X1951Y3822D03*
G54D11*
X3151Y1422D03*
X3151Y1322D03*
X3151Y1222D03*
X3151Y1122D03*
X3151Y1022D03*
X3151Y2022D03*
X3151Y1922D03*
X3151Y1822D03*
X3151Y1722D03*
X3151Y1622D03*
X1751Y1922D03*
X1651Y1922D03*
G54D12*
X1459Y3322D03*
X1451Y3222D03*
X1459Y3122D03*
X1451Y3022D03*
X1459Y2922D03*
X1451Y2822D03*
X1459Y2722D03*
X1451Y2622D03*
X1459Y2522D03*
X1451Y2422D03*
X1459Y2322D03*
X1451Y2222D03*
G54D13*
X1851Y3822D03*
X1843Y3722D03*
X1851Y3622D03*
X1843Y3522D03*
X1851Y3422D03*
X1843Y3322D03*
X1851Y3222D03*
X1843Y3122D03*
X1851Y3022D03*
X1843Y2922D03*
X1851Y2822D03*
X1843Y2722D03*
X1851Y2622D03*
X1843Y2522D03*
X1851Y2422D03*
X1843Y2322D03*
X359Y3622D03*
X351Y3522D03*
X359Y3422D03*
X351Y3322D03*
X359Y3222D03*
X351Y3122D03*
X359Y3022D03*
X351Y2922D03*
X359Y2822D03*
X351Y2722D03*
X359Y2622D03*
X351Y2522D03*
X359Y2422D03*
X351Y2322D03*
X359Y2222D03*
X351Y2122D03*
X2651Y3822D03*
X2643Y3722D03*
X2651Y3622D03*
X2643Y3522D03*
X2651Y3422D03*
X2643Y3322D03*
X2651Y3222D03*
X2643Y3122D03*
X2651Y3022D03*
X2643Y2922D03*
X2651Y2822D03*
X2643Y2722D03*
X2651Y2622D03*
X2643Y2522D03*
X2651Y2422D03*
X2643Y2322D03*
G54D11*
X3151Y3122D03*
X3151Y3022D03*
X3151Y2922D03*
X3151Y2822D03*
X3151Y2722D03*
X3151Y2622D03*
X3151Y2522D03*
X3151Y2422D03*
X3751Y522D03*
X3751Y422D03*
G54D14*
X3651Y3522D03*
X3651Y3422D03*
X3551Y3522D03*
X3551Y3422D03*
X3451Y3522D03*
X3451Y3422D03*
X3351Y3522D03*
X3351Y3422D03*
X3251Y3522D03*
X3251Y3422D03*
X3151Y3522D03*
X3151Y3422D03*
G54D15*
X2951Y522D03*
X2951Y422D03*
X2951Y322D03*
G54D16*
X501Y2354D03*
X501Y2254D03*
X501Y2454D03*
X501Y2554D03*
X501Y2654D03*
X501Y2754D03*
X501Y2854D03*
X501Y2954D03*
X501Y3054D03*
X501Y3154D03*
X501Y3254D03*
X501Y3354D03*
X501Y3454D03*
X501Y3554D03*
X501Y3654D03*
X1301Y3254D03*
X1301Y3154D03*
X1301Y3054D03*
X1301Y2954D03*
X1301Y2854D03*
X1301Y2754D03*
X1301Y2654D03*
X1301Y2554D03*
X1301Y2454D03*
X1301Y2354D03*
X1301Y2254D03*
X1301Y2154D03*
G54D17*
X1251Y3804D03*
X551Y3804D03*
G54D16*
X501Y2154D03*
G54D10*
X1051Y422D03*
G54D17*
X1001Y122D03*
G54D10*
X951Y422D03*
X851Y422D03*
X751Y422D03*
X651Y422D03*
X551Y422D03*
G54D17*
X501Y122D03*
G54D10*
X451Y422D03*
G54D18*
X2301Y1197D03*
G54D10*
X1851Y1222D03*
X1851Y1122D03*
X1851Y1022D03*
X1851Y922D03*
X1851Y822D03*
G54D18*
X2301Y547D03*
G54D10*
X1851Y722D03*
X1851Y622D03*
X1851Y522D03*
G54D17*
X2751Y1472D03*
G54D10*
X2251Y2122D03*
X2251Y2022D03*
X2251Y1922D03*
X2251Y1822D03*
X2251Y1722D03*
X2251Y1622D03*
X2251Y1522D03*
X2251Y1422D03*
G54D17*
X2751Y2072D03*
G54D10*
X226Y761D03*
X226Y861D03*
X226Y961D03*
X226Y1061D03*
X226Y1161D03*
X226Y1261D03*
X226Y1361D03*
X226Y1461D03*
X226Y1561D03*
X226Y1661D03*
X1077Y775D03*
X1077Y875D03*
X1077Y975D03*
X1077Y1075D03*
X1077Y1175D03*
X1077Y1275D03*
X1077Y1375D03*
X1077Y1475D03*
X1077Y1575D03*
X1077Y1675D03*
G54D12*
X2251Y222D03*
X2351Y222D03*
X2451Y222D03*
X1451Y222D03*
X1551Y222D03*
X1651Y222D03*
G54D14*
X3451Y922D03*
X3451Y522D03*
G54D19*
X2268Y1069D03*
X1212Y2821D03*
X3396Y757D03*
X1140Y2197D03*
X1596Y1357D03*
X1068Y1981D03*
X1140Y2269D03*
X1452Y1213D03*
X948Y1549D03*
X1908Y445D03*
X3012Y1429D03*
X3156Y709D03*
X3228Y2269D03*
X2484Y1957D03*
X1836Y397D03*
X1140Y565D03*
X3252Y2029D03*
X1260Y205D03*
X2460Y3757D03*
X3084Y3349D03*
X2676Y2173D03*
X3012Y1693D03*
X1980Y1333D03*
X1644Y1165D03*
X1212Y1141D03*
X1212Y1069D03*
X1644Y1093D03*
X2028Y1189D03*
X3036Y3445D03*
X3324Y2125D03*
X3108Y517D03*
X2964Y3637D03*
X1308Y469D03*
X1644Y349D03*
X2484Y1381D03*
X3036Y757D03*
X3612Y541D03*
X3636Y1141D03*
X2724Y3637D03*
G54D20*
X2551Y2422D03*
G54D21*
X3151Y1422D03*
X3151Y2022D03*
X1751Y1922D03*
X3151Y3122D03*
X3751Y522D03*
G54D22*
X3651Y3522D03*
G54D23*
X1933Y2722D02*
X1860Y2722D01*
D02*
X1933Y3322D02*
X1860Y3322D01*
D02*
X1933Y3822D02*
X1868Y3822D01*
D02*
X1933Y2822D02*
X1868Y2822D01*
D02*
X1933Y3122D02*
X1860Y3122D01*
D02*
X2569Y3522D02*
X2625Y3522D01*
D02*
X1933Y3422D02*
X1868Y3422D01*
D02*
X2569Y3422D02*
X2633Y3422D01*
D02*
X2633Y2622D02*
X2569Y2622D01*
D02*
X1456Y3304D02*
X1452Y3277D01*
X1452Y3277D02*
X1332Y3277D01*
X1332Y3277D02*
X1316Y3266D01*
D02*
X376Y3626D02*
X481Y3650D01*
D02*
X1442Y2715D02*
X1319Y2662D01*
D02*
X376Y2226D02*
X481Y2250D01*
D02*
X376Y2426D02*
X481Y2450D01*
D02*
X368Y3125D02*
X481Y3150D01*
D02*
X1435Y2815D02*
X1319Y2762D01*
D02*
X368Y2525D02*
X481Y2550D01*
D02*
X376Y2626D02*
X481Y2650D01*
D02*
X376Y3426D02*
X481Y3450D01*
D02*
X376Y3026D02*
X481Y3050D01*
D02*
X376Y3226D02*
X481Y3250D01*
D02*
X2569Y2922D02*
X2625Y2922D01*
D02*
X3132Y2825D02*
X2660Y2918D01*
D02*
X2569Y2822D02*
X2633Y2822D01*
D02*
X3132Y2726D02*
X2668Y2818D01*
D02*
X3152Y2041D02*
X3168Y2341D01*
X3168Y2341D02*
X3228Y2389D01*
X3228Y2389D02*
X3228Y3085D01*
X3228Y3085D02*
X3168Y3114D01*
D02*
X2265Y236D02*
X2988Y973D01*
X2988Y973D02*
X3132Y1016D01*
D02*
X1463Y206D02*
X1500Y157D01*
X1500Y157D02*
X2508Y157D01*
X2508Y157D02*
X2508Y277D01*
X2508Y277D02*
X3012Y877D01*
X3012Y877D02*
X3433Y920D01*
D02*
X2633Y3022D02*
X2569Y3022D01*
D02*
X376Y2826D02*
X481Y2850D01*
D02*
X3165Y1134D02*
X3228Y1189D01*
X3228Y1189D02*
X3228Y1693D01*
X3228Y1693D02*
X3168Y1715D01*
D02*
X3742Y539D02*
X3492Y1021D01*
X3492Y1021D02*
X3169Y1116D01*
D02*
X1471Y2910D02*
X1788Y2605D01*
X1788Y2605D02*
X1788Y2269D01*
X1788Y2269D02*
X1908Y2269D01*
X1908Y2269D02*
X2534Y2515D01*
D02*
X1319Y2862D02*
X1442Y2915D01*
D02*
X368Y2125D02*
X481Y2150D01*
D02*
X2268Y1077D02*
X2268Y1093D01*
X2268Y1093D02*
X1380Y2077D01*
X1380Y2077D02*
X520Y2152D01*
D02*
X2633Y2422D02*
X2569Y2422D01*
D02*
X1318Y2962D02*
X1435Y3015D01*
D02*
X481Y2750D02*
X368Y2725D01*
D02*
X1550Y242D02*
X1512Y1741D01*
X1512Y1741D02*
X1236Y2017D01*
X1236Y2017D02*
X300Y2077D01*
X300Y2077D02*
X300Y2677D01*
X300Y2677D02*
X348Y2701D01*
X348Y2701D02*
X348Y2704D01*
D02*
X1860Y3722D02*
X1933Y3722D01*
D02*
X520Y3554D02*
X1620Y3565D01*
X1620Y3565D02*
X1828Y3712D01*
D02*
X368Y3525D02*
X481Y3550D01*
D02*
X1212Y2829D02*
X1236Y3301D01*
X1236Y3301D02*
X1620Y3565D01*
D02*
X1048Y441D02*
X1020Y709D01*
X1020Y709D02*
X1020Y1237D01*
X1020Y1237D02*
X1061Y1264D01*
D02*
X3137Y1435D02*
X2508Y2077D01*
X2508Y2077D02*
X2270Y2118D01*
D02*
X3447Y539D02*
X3398Y749D01*
D02*
X1148Y2195D02*
X1282Y2159D01*
D02*
X246Y1361D02*
X1044Y1357D01*
X1044Y1357D02*
X1060Y1365D01*
D02*
X2233Y1831D02*
X1466Y2214D01*
D02*
X751Y441D02*
X756Y1357D01*
X756Y1357D02*
X1044Y1357D01*
D02*
X1833Y731D02*
X1572Y877D01*
X1572Y877D02*
X1596Y1349D01*
D02*
X1092Y1487D02*
X1140Y1525D01*
X1140Y1525D02*
X1140Y1981D01*
X1140Y1981D02*
X1076Y1981D01*
D02*
X1148Y2268D02*
X1281Y2256D01*
D02*
X246Y1461D02*
X1057Y1474D01*
D02*
X1446Y1218D02*
X1093Y1463D01*
D02*
X2625Y2722D02*
X2569Y2722D01*
D02*
X1662Y1907D02*
X1812Y1717D01*
X1812Y1717D02*
X2172Y1369D01*
X2172Y1369D02*
X2292Y1369D01*
X2292Y1369D02*
X2316Y1381D01*
X2316Y1381D02*
X2316Y1957D01*
X2316Y1957D02*
X2196Y1957D01*
X2196Y1957D02*
X2124Y2269D01*
X2124Y2269D02*
X2700Y2269D01*
X2700Y2269D02*
X2700Y2677D01*
X2700Y2677D02*
X2656Y2711D01*
D02*
X2268Y1931D02*
X2316Y1957D01*
D02*
X1058Y1571D02*
X956Y1551D01*
D02*
X1908Y453D02*
X1908Y973D01*
X1908Y973D02*
X2316Y997D01*
X2316Y997D02*
X2388Y1093D01*
X2388Y1093D02*
X2388Y1261D01*
X2388Y1261D02*
X2172Y1369D01*
D02*
X246Y1560D02*
X940Y1549D01*
D02*
X3134Y1931D02*
X3084Y1957D01*
X3084Y1957D02*
X3084Y2005D01*
X3084Y2005D02*
X2844Y2245D01*
X2844Y2245D02*
X2700Y2269D01*
D02*
X3151Y1841D02*
X3151Y1903D01*
D02*
X3136Y1333D02*
X3018Y1424D01*
D02*
X3151Y1241D02*
X3151Y1303D01*
D02*
X1866Y1009D02*
X1908Y973D01*
D02*
X2968Y332D02*
X3036Y373D01*
X3036Y373D02*
X3036Y589D01*
X3036Y589D02*
X3150Y703D01*
D02*
X3245Y3538D02*
X3228Y3589D01*
X3228Y3589D02*
X2700Y3541D01*
X2700Y3541D02*
X2700Y3181D01*
X2700Y3181D02*
X3228Y3181D01*
X3228Y3181D02*
X3276Y3133D01*
X3276Y3133D02*
X3276Y2317D01*
X3276Y2317D02*
X3234Y2275D01*
D02*
X2483Y1949D02*
X2424Y1309D01*
X2424Y1309D02*
X2436Y1309D01*
X2436Y1309D02*
X2436Y1021D01*
X2436Y1021D02*
X2364Y997D01*
X2364Y997D02*
X2364Y925D01*
X2364Y925D02*
X1956Y925D01*
X1956Y925D02*
X1956Y397D01*
X1956Y397D02*
X1844Y397D01*
D02*
X1140Y557D02*
X1140Y373D01*
X1140Y373D02*
X420Y361D01*
X420Y361D02*
X396Y373D01*
X396Y373D02*
X396Y853D01*
X396Y853D02*
X708Y853D01*
X708Y853D02*
X708Y1069D01*
X708Y1069D02*
X246Y1061D01*
D02*
X3639Y3408D02*
X3324Y3037D01*
X3324Y3037D02*
X3324Y2245D01*
X3324Y2245D02*
X3228Y2029D01*
X3228Y2029D02*
X3244Y2029D01*
D02*
X1259Y213D02*
X1176Y685D01*
X1176Y685D02*
X1092Y761D01*
D02*
X210Y771D02*
X156Y805D01*
X156Y805D02*
X156Y1717D01*
X156Y1717D02*
X312Y3661D01*
X312Y3661D02*
X444Y3709D01*
X444Y3709D02*
X732Y3709D01*
X732Y3709D02*
X1572Y3637D01*
X1572Y3637D02*
X1812Y3877D01*
X1812Y3877D02*
X2028Y3877D01*
X2028Y3877D02*
X2452Y3759D01*
D02*
X3092Y3349D02*
X3324Y3349D01*
X3324Y3349D02*
X3345Y3405D01*
D02*
X2684Y2173D02*
X2820Y2173D01*
X2820Y2173D02*
X3009Y1700D01*
D02*
X1972Y1333D02*
X1692Y1333D01*
X1692Y1333D02*
X1646Y1173D01*
D02*
X1204Y1139D02*
X1092Y1117D01*
X1092Y1117D02*
X1084Y1093D01*
D02*
X1093Y986D02*
X1206Y1064D01*
D02*
X1652Y1095D02*
X1740Y1117D01*
X1740Y1117D02*
X1740Y1285D01*
X1740Y1285D02*
X1908Y1285D01*
X1908Y1285D02*
X2022Y1194D01*
D02*
X3036Y3437D02*
X3036Y3301D01*
X3036Y3301D02*
X3420Y3301D01*
X3420Y3301D02*
X3446Y3405D01*
D02*
X3666Y3514D02*
X3708Y3493D01*
X3708Y3493D02*
X3708Y3325D01*
X3708Y3325D02*
X3660Y3325D01*
X3660Y3325D02*
X3372Y2965D01*
X3372Y2965D02*
X3372Y2173D01*
X3372Y2173D02*
X3330Y2131D01*
D02*
X3107Y509D02*
X3072Y301D01*
X3072Y301D02*
X2556Y109D01*
X2556Y109D02*
X1452Y109D01*
X1452Y109D02*
X1380Y181D01*
X1380Y181D02*
X1380Y565D01*
X1380Y565D02*
X1091Y860D01*
D02*
X2972Y3637D02*
X3276Y3637D01*
X3276Y3637D02*
X3341Y3536D01*
D02*
X244Y952D02*
X348Y901D01*
X348Y901D02*
X348Y301D01*
X348Y301D02*
X1140Y205D01*
X1140Y205D02*
X1188Y157D01*
X1188Y157D02*
X1308Y157D01*
X1308Y157D02*
X1308Y461D01*
D02*
X1652Y349D02*
X2004Y349D01*
X2004Y349D02*
X2484Y973D01*
X2484Y973D02*
X2484Y1373D01*
D02*
X3044Y757D02*
X3204Y757D01*
X3204Y757D02*
X3204Y445D01*
X3204Y445D02*
X3492Y445D01*
X3492Y445D02*
X3606Y536D01*
D02*
X3636Y1149D02*
X3756Y3565D01*
X3756Y3565D02*
X3372Y3685D01*
X3372Y3685D02*
X2724Y3685D01*
X2724Y3685D02*
X2724Y3645D01*
G54D24*
X2918Y552D02*
X2984Y552D01*
X2913Y551D02*
X2989Y551D01*
X2910Y550D02*
X2992Y550D01*
X2908Y549D02*
X2994Y549D01*
X2906Y548D02*
X2996Y548D01*
X2905Y547D02*
X2998Y547D01*
X2903Y546D02*
X2999Y546D01*
X2902Y545D02*
X3000Y545D01*
X2901Y544D02*
X3001Y544D01*
X2900Y543D02*
X3002Y543D01*
X2899Y542D02*
X2948Y542D01*
X2954Y542D02*
X3003Y542D01*
X2898Y541D02*
X2944Y541D01*
X2958Y541D02*
X3004Y541D01*
X2897Y540D02*
X2941Y540D01*
X2961Y540D02*
X3005Y540D01*
X2897Y539D02*
X2940Y539D01*
X2962Y539D02*
X3005Y539D01*
X2896Y538D02*
X2938Y538D01*
X2964Y538D02*
X3006Y538D01*
X2895Y537D02*
X2937Y537D01*
X2965Y537D02*
X3007Y537D01*
X2895Y536D02*
X2936Y536D01*
X2966Y536D02*
X3007Y536D01*
X2894Y535D02*
X2935Y535D01*
X2967Y535D02*
X3008Y535D01*
X2894Y534D02*
X2934Y534D01*
X2968Y534D02*
X3008Y534D01*
X2894Y533D02*
X2934Y533D01*
X2968Y533D02*
X3009Y533D01*
X2893Y532D02*
X2933Y532D01*
X2969Y532D02*
X3009Y532D01*
X2893Y531D02*
X2933Y531D01*
X2969Y531D02*
X3009Y531D01*
X2893Y530D02*
X2932Y530D01*
X2970Y530D02*
X3010Y530D01*
X2892Y529D02*
X2932Y529D01*
X2970Y529D02*
X3010Y529D01*
X2892Y528D02*
X2931Y528D01*
X2971Y528D02*
X3010Y528D01*
X2892Y527D02*
X2931Y527D01*
X2971Y527D02*
X3010Y527D01*
X2892Y526D02*
X2931Y526D01*
X2971Y526D02*
X3010Y526D01*
X2892Y525D02*
X2931Y525D01*
X2971Y525D02*
X3010Y525D01*
X2892Y524D02*
X2931Y524D01*
X2971Y524D02*
X3010Y524D01*
X2892Y523D02*
X2931Y523D01*
X2971Y523D02*
X3011Y523D01*
X2892Y522D02*
X2931Y522D01*
X2972Y522D02*
X3011Y522D01*
X2892Y521D02*
X2931Y521D01*
X2971Y521D02*
X3010Y521D01*
X2892Y520D02*
X2931Y520D01*
X2971Y520D02*
X3010Y520D01*
X2892Y519D02*
X2931Y519D01*
X2971Y519D02*
X3010Y519D01*
X2892Y518D02*
X2931Y518D01*
X2971Y518D02*
X3010Y518D01*
X2892Y517D02*
X2931Y517D01*
X2971Y517D02*
X3010Y517D01*
X2892Y516D02*
X2932Y516D01*
X2970Y516D02*
X3010Y516D01*
X2892Y515D02*
X2932Y515D01*
X2970Y515D02*
X3010Y515D01*
X2893Y514D02*
X2932Y514D01*
X2970Y514D02*
X3009Y514D01*
X2893Y513D02*
X2933Y513D01*
X2969Y513D02*
X3009Y513D01*
X2893Y512D02*
X2933Y512D01*
X2969Y512D02*
X3009Y512D01*
X2894Y511D02*
X2934Y511D01*
X2968Y511D02*
X3008Y511D01*
X2894Y510D02*
X2935Y510D01*
X2967Y510D02*
X3008Y510D01*
X2895Y509D02*
X2936Y509D01*
X2966Y509D02*
X3007Y509D01*
X2895Y508D02*
X2937Y508D01*
X2966Y508D02*
X3007Y508D01*
X2896Y507D02*
X2938Y507D01*
X2964Y507D02*
X3006Y507D01*
X2896Y506D02*
X2939Y506D01*
X2963Y506D02*
X3006Y506D01*
X2897Y505D02*
X2941Y505D01*
X2961Y505D02*
X3005Y505D01*
X2898Y504D02*
X2942Y504D01*
X2960Y504D02*
X3004Y504D01*
X2899Y503D02*
X2945Y503D01*
X2957Y503D02*
X3004Y503D01*
X2899Y502D02*
X3003Y502D01*
X2900Y501D02*
X3002Y501D01*
X2902Y500D02*
X3001Y500D01*
X2903Y499D02*
X2999Y499D01*
X2904Y498D02*
X2998Y498D01*
X2905Y497D02*
X2997Y497D01*
X2907Y496D02*
X2995Y496D01*
X2909Y495D02*
X2993Y495D01*
X2912Y494D02*
X2991Y494D01*
X2915Y493D02*
X2987Y493D01*
X2918Y452D02*
X2984Y452D01*
X2913Y451D02*
X2989Y451D01*
X2910Y450D02*
X2992Y450D01*
X2908Y449D02*
X2994Y449D01*
X2906Y448D02*
X2996Y448D01*
X2905Y447D02*
X2998Y447D01*
X2903Y446D02*
X2999Y446D01*
X2902Y445D02*
X3000Y445D01*
X2901Y444D02*
X3001Y444D01*
X2900Y443D02*
X3002Y443D01*
X2899Y442D02*
X2948Y442D01*
X2954Y442D02*
X3003Y442D01*
X2898Y441D02*
X2944Y441D01*
X2958Y441D02*
X3004Y441D01*
X2897Y440D02*
X2941Y440D01*
X2961Y440D02*
X3005Y440D01*
X2897Y439D02*
X2940Y439D01*
X2962Y439D02*
X3005Y439D01*
X2896Y438D02*
X2938Y438D01*
X2964Y438D02*
X3006Y438D01*
X2895Y437D02*
X2937Y437D01*
X2965Y437D02*
X3007Y437D01*
X2895Y436D02*
X2936Y436D01*
X2966Y436D02*
X3007Y436D01*
X2894Y435D02*
X2935Y435D01*
X2967Y435D02*
X3008Y435D01*
X2894Y434D02*
X2934Y434D01*
X2968Y434D02*
X3008Y434D01*
X2894Y433D02*
X2934Y433D01*
X2968Y433D02*
X3009Y433D01*
X2893Y432D02*
X2933Y432D01*
X2969Y432D02*
X3009Y432D01*
X2893Y431D02*
X2933Y431D01*
X2969Y431D02*
X3009Y431D01*
X2893Y430D02*
X2932Y430D01*
X2970Y430D02*
X3010Y430D01*
X2892Y429D02*
X2932Y429D01*
X2970Y429D02*
X3010Y429D01*
X2892Y428D02*
X2931Y428D01*
X2971Y428D02*
X3010Y428D01*
X2892Y427D02*
X2931Y427D01*
X2971Y427D02*
X3010Y427D01*
X2892Y426D02*
X2931Y426D01*
X2971Y426D02*
X3010Y426D01*
X2892Y425D02*
X2931Y425D01*
X2971Y425D02*
X3010Y425D01*
X2892Y424D02*
X2931Y424D01*
X2971Y424D02*
X3010Y424D01*
X2892Y423D02*
X2931Y423D01*
X2971Y423D02*
X3011Y423D01*
X2892Y422D02*
X2931Y422D01*
X2972Y422D02*
X3011Y422D01*
X2892Y421D02*
X2931Y421D01*
X2971Y421D02*
X3010Y421D01*
X2892Y420D02*
X2931Y420D01*
X2971Y420D02*
X3010Y420D01*
X2892Y419D02*
X2931Y419D01*
X2971Y419D02*
X3010Y419D01*
X2892Y418D02*
X2931Y418D01*
X2971Y418D02*
X3010Y418D01*
X2892Y417D02*
X2931Y417D01*
X2971Y417D02*
X3010Y417D01*
X2892Y416D02*
X2932Y416D01*
X2970Y416D02*
X3010Y416D01*
X2892Y415D02*
X2932Y415D01*
X2970Y415D02*
X3010Y415D01*
X2893Y414D02*
X2932Y414D01*
X2970Y414D02*
X3009Y414D01*
X2893Y413D02*
X2933Y413D01*
X2969Y413D02*
X3009Y413D01*
X2893Y412D02*
X2933Y412D01*
X2969Y412D02*
X3009Y412D01*
X2894Y411D02*
X2934Y411D01*
X2968Y411D02*
X3008Y411D01*
X2894Y410D02*
X2935Y410D01*
X2967Y410D02*
X3008Y410D01*
X2895Y409D02*
X2936Y409D01*
X2966Y409D02*
X3007Y409D01*
X2895Y408D02*
X2937Y408D01*
X2966Y408D02*
X3007Y408D01*
X2896Y407D02*
X2938Y407D01*
X2964Y407D02*
X3006Y407D01*
X2896Y406D02*
X2939Y406D01*
X2963Y406D02*
X3006Y406D01*
X2897Y405D02*
X2941Y405D01*
X2961Y405D02*
X3005Y405D01*
X2898Y404D02*
X2942Y404D01*
X2960Y404D02*
X3004Y404D01*
X2899Y403D02*
X2945Y403D01*
X2957Y403D02*
X3004Y403D01*
X2899Y402D02*
X3003Y402D01*
X2900Y401D02*
X3002Y401D01*
X2902Y400D02*
X3001Y400D01*
X2903Y399D02*
X2999Y399D01*
X2904Y398D02*
X2998Y398D01*
X2905Y397D02*
X2997Y397D01*
X2907Y396D02*
X2995Y396D01*
X2909Y395D02*
X2993Y395D01*
X2912Y394D02*
X2991Y394D01*
X2915Y393D02*
X2987Y393D01*
X2918Y352D02*
X2984Y352D01*
X2913Y351D02*
X2989Y351D01*
X2910Y350D02*
X2992Y350D01*
X2908Y349D02*
X2994Y349D01*
X2906Y348D02*
X2996Y348D01*
X2905Y347D02*
X2998Y347D01*
X2903Y346D02*
X2999Y346D01*
X2902Y345D02*
X3000Y345D01*
X2901Y344D02*
X3001Y344D01*
X2900Y343D02*
X3002Y343D01*
X2899Y342D02*
X2948Y342D01*
X2954Y342D02*
X3003Y342D01*
X2898Y341D02*
X2944Y341D01*
X2958Y341D02*
X3004Y341D01*
X2897Y340D02*
X2941Y340D01*
X2961Y340D02*
X3005Y340D01*
X2897Y339D02*
X2940Y339D01*
X2962Y339D02*
X3005Y339D01*
X2896Y338D02*
X2938Y338D01*
X2964Y338D02*
X3006Y338D01*
X2895Y337D02*
X2937Y337D01*
X2965Y337D02*
X3007Y337D01*
X2895Y336D02*
X2936Y336D01*
X2966Y336D02*
X3007Y336D01*
X2894Y335D02*
X2935Y335D01*
X2967Y335D02*
X3008Y335D01*
X2894Y334D02*
X2934Y334D01*
X2968Y334D02*
X3008Y334D01*
X2894Y333D02*
X2934Y333D01*
X2968Y333D02*
X3009Y333D01*
X2893Y332D02*
X2933Y332D01*
X2969Y332D02*
X3009Y332D01*
X2893Y331D02*
X2933Y331D01*
X2969Y331D02*
X3009Y331D01*
X2893Y330D02*
X2932Y330D01*
X2970Y330D02*
X3010Y330D01*
X2892Y329D02*
X2932Y329D01*
X2970Y329D02*
X3010Y329D01*
X2892Y328D02*
X2931Y328D01*
X2971Y328D02*
X3010Y328D01*
X2892Y327D02*
X2931Y327D01*
X2971Y327D02*
X3010Y327D01*
X2892Y326D02*
X2931Y326D01*
X2971Y326D02*
X3010Y326D01*
X2892Y325D02*
X2931Y325D01*
X2971Y325D02*
X3010Y325D01*
X2892Y324D02*
X2931Y324D01*
X2971Y324D02*
X3010Y324D01*
X2892Y323D02*
X2931Y323D01*
X2971Y323D02*
X3011Y323D01*
X2892Y322D02*
X2931Y322D01*
X2972Y322D02*
X3011Y322D01*
X2892Y321D02*
X2931Y321D01*
X2971Y321D02*
X3010Y321D01*
X2892Y320D02*
X2931Y320D01*
X2971Y320D02*
X3010Y320D01*
X2892Y319D02*
X2931Y319D01*
X2971Y319D02*
X3010Y319D01*
X2892Y318D02*
X2931Y318D01*
X2971Y318D02*
X3010Y318D01*
X2892Y317D02*
X2931Y317D01*
X2971Y317D02*
X3010Y317D01*
X2892Y316D02*
X2932Y316D01*
X2970Y316D02*
X3010Y316D01*
X2892Y315D02*
X2932Y315D01*
X2970Y315D02*
X3010Y315D01*
X2893Y314D02*
X2932Y314D01*
X2970Y314D02*
X3009Y314D01*
X2893Y313D02*
X2933Y313D01*
X2969Y313D02*
X3009Y313D01*
X2893Y312D02*
X2933Y312D01*
X2969Y312D02*
X3009Y312D01*
X2894Y311D02*
X2934Y311D01*
X2968Y311D02*
X3008Y311D01*
X2894Y310D02*
X2935Y310D01*
X2967Y310D02*
X3008Y310D01*
X2895Y309D02*
X2936Y309D01*
X2966Y309D02*
X3007Y309D01*
X2895Y308D02*
X2937Y308D01*
X2966Y308D02*
X3007Y308D01*
X2896Y307D02*
X2938Y307D01*
X2964Y307D02*
X3006Y307D01*
X2896Y306D02*
X2939Y306D01*
X2963Y306D02*
X3006Y306D01*
X2897Y305D02*
X2941Y305D01*
X2961Y305D02*
X3005Y305D01*
X2898Y304D02*
X2942Y304D01*
X2960Y304D02*
X3004Y304D01*
X2899Y303D02*
X2945Y303D01*
X2957Y303D02*
X3004Y303D01*
X2899Y302D02*
X3003Y302D01*
X2900Y301D02*
X3002Y301D01*
X2902Y300D02*
X3001Y300D01*
X2903Y299D02*
X2999Y299D01*
X2904Y298D02*
X2998Y298D01*
X2905Y297D02*
X2997Y297D01*
X2907Y296D02*
X2995Y296D01*
X2909Y295D02*
X2993Y295D01*
X2912Y294D02*
X2991Y294D01*
X2915Y293D02*
X2987Y293D01*
D02*
G04 End of Copper0*
M02*