; NON-PLATED HOLES START AT T1
; THROUGH (PLATED) HOLES START AT T100
M48
INCH
T1C0.125984
T100C0.038000
T101C0.015748
T102C0.039370
T103C0.098425
T104C0.040000
T105C0.035000
T106C0.086614
T107C0.036000
%
T1
X001505Y001217
X037505Y038217
X001505Y038217
X037505Y001217
T100
X031505Y016217
X031505Y025217
X017505Y019217
X031505Y020217
X037505Y005217
X016505Y019217
X031505Y030217
X031505Y013217
X031505Y027217
X031505Y011217
X031505Y024217
X031505Y026217
X031505Y028217
X031505Y010217
X037505Y004217
X031505Y018217
X031505Y012217
X031505Y019217
X031505Y014217
X031505Y029217
X031505Y017217
X031505Y031217
T101
X012120Y011410
X016440Y010930
X030360Y007570
X027240Y036370
X016440Y011650
X011400Y022690
X020280Y011890
X012120Y010690
X033960Y007570
X014520Y012130
X010680Y019810
X030120Y014290
X012600Y002050
X036120Y005410
X012120Y028210
X024600Y037570
X029640Y036370
X031560Y007090
X009480Y015490
X032520Y020290
X022680Y010690
X030120Y016930
X024840Y019570
X019080Y004450
X016440Y003490
X019800Y013330
X031080Y005170
X030840Y033490
X013080Y004690
X030360Y034450
X026760Y021730
X024840Y013810
X032280Y022690
X015960Y013570
X036360Y011410
X033240Y021250
X018360Y003970
X011400Y021970
X011400Y005650
T102
X013005Y022538
X018505Y010217
X010771Y007745
X010771Y010745
X002262Y009606
X005005Y031538
X018505Y012217
X013005Y027538
X010771Y013745
X005505Y004217
X018505Y009217
X005005Y036538
X022505Y015217
X013005Y030538
X010771Y012745
X010771Y015745
X006505Y004217
X013005Y028538
X022505Y019217
X022505Y014217
X005005Y022538
X010771Y016745
X005005Y027538
X009505Y004217
X005005Y029538
X002262Y015606
X013005Y023538
X010505Y004217
X005005Y028538
X002262Y010606
X018505Y008217
X005005Y025538
X002262Y012606
X005005Y024538
X018505Y007217
X005005Y026538
X010771Y014745
X018505Y006217
X005005Y021538
X013005Y031538
X010771Y011745
X002262Y011606
X002262Y016606
X002262Y013606
X018505Y005217
X013005Y021538
X013005Y029538
X013005Y026538
X010771Y009745
X005005Y034538
X005005Y032538
X022505Y017217
X013005Y024538
X002262Y007606
X018505Y011217
X005005Y030538
X022505Y021217
X005005Y023538
X022505Y020217
X008505Y004217
X002262Y008606
X013005Y032538
X010771Y008745
X002262Y014606
X005005Y035538
X004505Y004217
X022505Y016217
X022505Y018217
X013005Y025538
X007505Y004217
X005005Y033538
T103
X027505Y020717
X010005Y001217
X012505Y038038
X005005Y001217
X027505Y014717
X005505Y038038
T104
X029505Y005217
X029505Y004217
X014505Y002217
X029505Y003217
X023505Y002217
X016505Y002217
X024505Y002217
X022505Y002217
X015505Y002217
T105
X018505Y028217
X003585Y032217
X026425Y023217
X031505Y034217
X035505Y035217
X026425Y037217
X026505Y032217
X003505Y021217
X014505Y032217
X014505Y030217
X018505Y034217
X026425Y027217
X014585Y027217
X018505Y026217
X018505Y032217
X014585Y033217
X034505Y034217
X003585Y022217
X014505Y022217
X026425Y035217
X003505Y023217
X026505Y038217
X014585Y031217
X031505Y035217
X018505Y036217
X003585Y026217
X026425Y033217
X014505Y024217
X034505Y005217
X003505Y025217
X018425Y027217
X033505Y035217
X014585Y025217
X003505Y031217
X003585Y030217
X003505Y035217
X003585Y034217
X026505Y034217
X026505Y028217
X018425Y023217
X014505Y028217
X036505Y035217
X018425Y029217
X003585Y036217
X018505Y024217
X026505Y024217
X018425Y025217
X032505Y034217
X014505Y026217
X026505Y026217
X014585Y023217
X018425Y033217
X014585Y029217
X026425Y029217
X032505Y035217
X003505Y033217
X018425Y035217
X034505Y035217
X018505Y030217
X026425Y025217
X018505Y038217
X035505Y034217
X003585Y028217
X003505Y029217
X003585Y024217
X026505Y030217
X026425Y031217
X034505Y009217
X026505Y036217
X018425Y037217
X033505Y034217
X036505Y034217
X018425Y031217
X003505Y027217
T106
X023005Y005467
X023005Y011967
T107
X025505Y025217
X019505Y033217
X019505Y031217
X019505Y034217
X025505Y036217
X025505Y030217
X019505Y037217
X025505Y037217
X025505Y032217
X025505Y033217
X025505Y034217
X019505Y038217
X019505Y029217
X025505Y035217
X019505Y035217
X025505Y027217
X025505Y028217
X019505Y036217
X025505Y038217
X019505Y028217
X019505Y030217
X025505Y031217
X019505Y024217
X019505Y032217
X025505Y026217
X019505Y027217
X025505Y029217
X019505Y026217
X019505Y025217
X025505Y024217
T00
M30
