G04 MADE WITH FRITZING*
G04 WWW.FRITZING.ORG*
G04 DOUBLE SIDED*
G04 HOLES PLATED*
G04 CONTOUR ON CENTER OF CONTOUR VECTOR*
%ASAXBY*%
%FSLAX23Y23*%
%MOIN*%
%OFA0B0*%
%SFA1.0B1.0*%
%ADD10C,0.080000*%
%ADD11C,0.088000*%
%ADD12C,0.084000*%
%ADD13C,0.065000*%
%ADD14C,0.135984*%
%ADD15C,0.085000*%
%ADD16C,0.070000*%
%ADD17C,0.076000*%
%ADD18C,0.148425*%
%ADD19C,0.136614*%
%ADD20C,0.049370*%
%ADD21R,0.079972X0.080000*%
%ADD22R,0.088000X0.088000*%
%ADD23R,0.085000X0.085000*%
%ADD24R,0.001000X0.001000*%
%LNMASK0*%
G90*
G70*
G54D10*
X2551Y2422D03*
X2551Y2522D03*
X2551Y2622D03*
X2551Y2722D03*
X2551Y2822D03*
X2551Y2922D03*
X2551Y3022D03*
X2551Y3122D03*
X2551Y3222D03*
X2551Y3322D03*
X2551Y3422D03*
X2551Y3522D03*
X2551Y3622D03*
X2551Y3722D03*
X2551Y3822D03*
X1951Y2422D03*
X1951Y2522D03*
X1951Y2622D03*
X1951Y2722D03*
X1951Y2822D03*
X1951Y2922D03*
X1951Y3022D03*
X1951Y3122D03*
X1951Y3222D03*
X1951Y3322D03*
X1951Y3422D03*
X1951Y3522D03*
X1951Y3622D03*
X1951Y3722D03*
X1951Y3822D03*
G54D11*
X3151Y1422D03*
X3151Y1322D03*
X3151Y1222D03*
X3151Y1122D03*
X3151Y1022D03*
X3151Y2022D03*
X3151Y1922D03*
X3151Y1822D03*
X3151Y1722D03*
X3151Y1622D03*
X1751Y1922D03*
X1651Y1922D03*
G54D12*
X1459Y3322D03*
X1451Y3222D03*
X1459Y3122D03*
X1451Y3022D03*
X1459Y2922D03*
X1451Y2822D03*
X1459Y2722D03*
X1451Y2622D03*
X1459Y2522D03*
X1451Y2422D03*
X1459Y2322D03*
X1451Y2222D03*
G54D13*
X1851Y3822D03*
X1843Y3722D03*
X1851Y3622D03*
X1843Y3522D03*
X1851Y3422D03*
X1843Y3322D03*
X1851Y3222D03*
X1843Y3122D03*
X1851Y3022D03*
X1843Y2922D03*
X1851Y2822D03*
X1843Y2722D03*
X1851Y2622D03*
X1843Y2522D03*
X1851Y2422D03*
X1843Y2322D03*
X359Y3622D03*
X351Y3522D03*
X359Y3422D03*
X351Y3322D03*
X359Y3222D03*
X351Y3122D03*
X359Y3022D03*
X351Y2922D03*
X359Y2822D03*
X351Y2722D03*
X359Y2622D03*
X351Y2522D03*
X359Y2422D03*
X351Y2322D03*
X359Y2222D03*
X351Y2122D03*
X2651Y3822D03*
X2643Y3722D03*
X2651Y3622D03*
X2643Y3522D03*
X2651Y3422D03*
X2643Y3322D03*
X2651Y3222D03*
X2643Y3122D03*
X2651Y3022D03*
X2643Y2922D03*
X2651Y2822D03*
X2643Y2722D03*
X2651Y2622D03*
X2643Y2522D03*
X2651Y2422D03*
X2643Y2322D03*
G54D11*
X3151Y3122D03*
X3151Y3022D03*
X3151Y2922D03*
X3151Y2822D03*
X3151Y2722D03*
X3151Y2622D03*
X3151Y2522D03*
X3151Y2422D03*
G54D14*
X151Y3822D03*
X3751Y3822D03*
X151Y122D03*
X3751Y122D03*
G54D11*
X3751Y522D03*
X3751Y422D03*
G54D15*
X3651Y3522D03*
X3651Y3422D03*
X3551Y3522D03*
X3551Y3422D03*
X3451Y3522D03*
X3451Y3422D03*
X3351Y3522D03*
X3351Y3422D03*
X3251Y3522D03*
X3251Y3422D03*
X3151Y3522D03*
X3151Y3422D03*
G54D16*
X2951Y522D03*
X2951Y422D03*
X2951Y322D03*
G54D17*
X501Y2354D03*
X501Y2254D03*
X501Y2454D03*
X501Y2554D03*
X501Y2654D03*
X501Y2754D03*
X501Y2854D03*
X501Y2954D03*
X501Y3054D03*
X501Y3154D03*
X501Y3254D03*
X501Y3354D03*
X501Y3454D03*
X501Y3554D03*
X501Y3654D03*
X1301Y3254D03*
X1301Y3154D03*
X1301Y3054D03*
X1301Y2954D03*
X1301Y2854D03*
X1301Y2754D03*
X1301Y2654D03*
X1301Y2554D03*
X1301Y2454D03*
X1301Y2354D03*
X1301Y2254D03*
X1301Y2154D03*
G54D18*
X1251Y3804D03*
X551Y3804D03*
G54D17*
X501Y2154D03*
G54D10*
X1051Y422D03*
G54D18*
X1001Y122D03*
G54D10*
X951Y422D03*
X851Y422D03*
X751Y422D03*
X651Y422D03*
X551Y422D03*
G54D18*
X501Y122D03*
G54D10*
X451Y422D03*
G54D19*
X2301Y1197D03*
G54D10*
X1851Y1222D03*
X1851Y1122D03*
X1851Y1022D03*
X1851Y922D03*
X1851Y822D03*
G54D19*
X2301Y547D03*
G54D10*
X1851Y722D03*
X1851Y622D03*
X1851Y522D03*
G54D18*
X2751Y1472D03*
G54D10*
X2251Y2122D03*
X2251Y2022D03*
X2251Y1922D03*
X2251Y1822D03*
X2251Y1722D03*
X2251Y1622D03*
X2251Y1522D03*
X2251Y1422D03*
G54D18*
X2751Y2072D03*
G54D10*
X226Y761D03*
X226Y861D03*
X226Y961D03*
X226Y1061D03*
X226Y1161D03*
X226Y1261D03*
X226Y1361D03*
X226Y1461D03*
X226Y1561D03*
X226Y1661D03*
X1077Y775D03*
X1077Y875D03*
X1077Y975D03*
X1077Y1075D03*
X1077Y1175D03*
X1077Y1275D03*
X1077Y1375D03*
X1077Y1475D03*
X1077Y1575D03*
X1077Y1675D03*
G54D12*
X2251Y222D03*
X2351Y222D03*
X2451Y222D03*
X1451Y222D03*
X1551Y222D03*
X1651Y222D03*
G54D15*
X3451Y922D03*
X3451Y522D03*
G54D20*
X2268Y1069D03*
X1212Y2821D03*
X3396Y757D03*
X1140Y2197D03*
X1596Y1357D03*
X1068Y1981D03*
X1140Y2269D03*
X1452Y1213D03*
X948Y1549D03*
X1908Y445D03*
X3012Y1429D03*
X3156Y709D03*
X3228Y2269D03*
X2484Y1957D03*
X1836Y397D03*
X1140Y565D03*
X3252Y2029D03*
X1260Y205D03*
X2460Y3757D03*
X3084Y3349D03*
X2676Y2173D03*
X3012Y1693D03*
X1980Y1333D03*
X1644Y1165D03*
X1212Y1141D03*
X1212Y1069D03*
X1644Y1093D03*
X2028Y1189D03*
X3036Y3445D03*
X3324Y2125D03*
X3108Y517D03*
X2964Y3637D03*
X1308Y469D03*
X1644Y349D03*
X2484Y1381D03*
X3036Y757D03*
X3612Y541D03*
X3636Y1141D03*
X2724Y3637D03*
G54D21*
X2551Y2422D03*
G54D22*
X3151Y1422D03*
X3151Y2022D03*
X1751Y1922D03*
X3151Y3122D03*
X3751Y522D03*
G54D23*
X3651Y3522D03*
G54D24*
X2918Y557D02*
X2985Y557D01*
X2913Y556D02*
X2989Y556D01*
X2910Y555D02*
X2993Y555D01*
X2907Y554D02*
X2995Y554D01*
X2905Y553D02*
X2997Y553D01*
X2903Y552D02*
X2999Y552D01*
X2902Y551D02*
X3000Y551D01*
X2900Y550D02*
X3002Y550D01*
X2899Y549D02*
X3003Y549D01*
X2898Y548D02*
X3004Y548D01*
X2897Y547D02*
X3005Y547D01*
X2896Y546D02*
X3006Y546D01*
X2895Y545D02*
X3007Y545D01*
X2894Y544D02*
X3008Y544D01*
X2893Y543D02*
X3009Y543D01*
X2893Y542D02*
X3009Y542D01*
X2892Y541D02*
X3010Y541D01*
X2891Y540D02*
X3011Y540D01*
X2891Y539D02*
X3011Y539D01*
X2890Y538D02*
X3012Y538D01*
X2890Y537D02*
X2948Y537D01*
X2954Y537D02*
X3012Y537D01*
X2889Y536D02*
X2944Y536D01*
X2958Y536D02*
X3013Y536D01*
X2889Y535D02*
X2943Y535D01*
X2960Y535D02*
X3013Y535D01*
X2889Y534D02*
X2941Y534D01*
X2961Y534D02*
X3013Y534D01*
X2888Y533D02*
X2940Y533D01*
X2962Y533D02*
X3014Y533D01*
X2888Y532D02*
X2939Y532D01*
X2963Y532D02*
X3014Y532D01*
X2888Y531D02*
X2938Y531D01*
X2964Y531D02*
X3014Y531D01*
X2887Y530D02*
X2938Y530D01*
X2964Y530D02*
X3015Y530D01*
X2887Y529D02*
X2937Y529D01*
X2965Y529D02*
X3015Y529D01*
X2887Y528D02*
X2937Y528D01*
X2965Y528D02*
X3015Y528D01*
X2887Y527D02*
X2936Y527D01*
X2966Y527D02*
X3015Y527D01*
X2887Y526D02*
X2936Y526D01*
X2966Y526D02*
X3015Y526D01*
X2887Y525D02*
X2936Y525D01*
X2966Y525D02*
X3015Y525D01*
X2887Y524D02*
X2936Y524D01*
X2966Y524D02*
X3015Y524D01*
X2887Y523D02*
X2936Y523D01*
X2966Y523D02*
X3016Y523D01*
X2887Y522D02*
X2936Y522D01*
X2967Y522D02*
X3016Y522D01*
X2887Y521D02*
X2936Y521D01*
X2966Y521D02*
X3015Y521D01*
X2887Y520D02*
X2936Y520D01*
X2966Y520D02*
X3015Y520D01*
X2887Y519D02*
X2936Y519D01*
X2966Y519D02*
X3015Y519D01*
X2887Y518D02*
X2936Y518D01*
X2966Y518D02*
X3015Y518D01*
X2887Y517D02*
X2936Y517D01*
X2966Y517D02*
X3015Y517D01*
X2887Y516D02*
X2937Y516D01*
X2965Y516D02*
X3015Y516D01*
X2887Y515D02*
X2937Y515D01*
X2965Y515D02*
X3015Y515D01*
X2888Y514D02*
X2938Y514D01*
X2964Y514D02*
X3014Y514D01*
X2888Y513D02*
X2939Y513D01*
X2963Y513D02*
X3014Y513D01*
X2888Y512D02*
X2940Y512D01*
X2962Y512D02*
X3014Y512D01*
X2889Y511D02*
X2941Y511D01*
X2961Y511D02*
X3014Y511D01*
X2889Y510D02*
X2942Y510D01*
X2960Y510D02*
X3013Y510D01*
X2889Y509D02*
X2944Y509D01*
X2959Y509D02*
X3013Y509D01*
X2890Y508D02*
X2946Y508D01*
X2956Y508D02*
X3012Y508D01*
X2890Y507D02*
X3012Y507D01*
X2891Y506D02*
X3011Y506D01*
X2891Y505D02*
X3011Y505D01*
X2892Y504D02*
X3010Y504D01*
X2892Y503D02*
X3010Y503D01*
X2893Y502D02*
X3009Y502D01*
X2894Y501D02*
X3008Y501D01*
X2895Y500D02*
X3008Y500D01*
X2895Y499D02*
X3007Y499D01*
X2896Y498D02*
X3006Y498D01*
X2897Y497D02*
X3005Y497D01*
X2898Y496D02*
X3004Y496D01*
X2900Y495D02*
X3002Y495D01*
X2901Y494D02*
X3001Y494D01*
X2903Y493D02*
X3000Y493D01*
X2904Y492D02*
X2998Y492D01*
X2906Y491D02*
X2996Y491D01*
X2908Y490D02*
X2994Y490D01*
X2911Y489D02*
X2991Y489D01*
X2915Y488D02*
X2987Y488D01*
X2918Y457D02*
X2985Y457D01*
X2913Y456D02*
X2989Y456D01*
X2910Y455D02*
X2993Y455D01*
X2907Y454D02*
X2995Y454D01*
X2905Y453D02*
X2997Y453D01*
X2903Y452D02*
X2999Y452D01*
X2902Y451D02*
X3000Y451D01*
X2900Y450D02*
X3002Y450D01*
X2899Y449D02*
X3003Y449D01*
X2898Y448D02*
X3004Y448D01*
X2897Y447D02*
X3005Y447D01*
X2896Y446D02*
X3006Y446D01*
X2895Y445D02*
X3007Y445D01*
X2894Y444D02*
X3008Y444D01*
X2893Y443D02*
X3009Y443D01*
X2893Y442D02*
X3009Y442D01*
X2892Y441D02*
X3010Y441D01*
X2891Y440D02*
X3011Y440D01*
X2891Y439D02*
X3011Y439D01*
X2890Y438D02*
X3012Y438D01*
X2890Y437D02*
X2948Y437D01*
X2954Y437D02*
X3012Y437D01*
X2889Y436D02*
X2944Y436D01*
X2958Y436D02*
X3013Y436D01*
X2889Y435D02*
X2943Y435D01*
X2960Y435D02*
X3013Y435D01*
X2889Y434D02*
X2941Y434D01*
X2961Y434D02*
X3013Y434D01*
X2888Y433D02*
X2940Y433D01*
X2962Y433D02*
X3014Y433D01*
X2888Y432D02*
X2939Y432D01*
X2963Y432D02*
X3014Y432D01*
X2888Y431D02*
X2938Y431D01*
X2964Y431D02*
X3014Y431D01*
X2887Y430D02*
X2938Y430D01*
X2964Y430D02*
X3015Y430D01*
X2887Y429D02*
X2937Y429D01*
X2965Y429D02*
X3015Y429D01*
X2887Y428D02*
X2937Y428D01*
X2965Y428D02*
X3015Y428D01*
X2887Y427D02*
X2936Y427D01*
X2966Y427D02*
X3015Y427D01*
X2887Y426D02*
X2936Y426D01*
X2966Y426D02*
X3015Y426D01*
X2887Y425D02*
X2936Y425D01*
X2966Y425D02*
X3015Y425D01*
X2887Y424D02*
X2936Y424D01*
X2966Y424D02*
X3015Y424D01*
X2887Y423D02*
X2936Y423D01*
X2966Y423D02*
X3016Y423D01*
X2887Y422D02*
X2936Y422D01*
X2967Y422D02*
X3016Y422D01*
X2887Y421D02*
X2936Y421D01*
X2966Y421D02*
X3015Y421D01*
X2887Y420D02*
X2936Y420D01*
X2966Y420D02*
X3015Y420D01*
X2887Y419D02*
X2936Y419D01*
X2966Y419D02*
X3015Y419D01*
X2887Y418D02*
X2936Y418D01*
X2966Y418D02*
X3015Y418D01*
X2887Y417D02*
X2936Y417D01*
X2966Y417D02*
X3015Y417D01*
X2887Y416D02*
X2937Y416D01*
X2965Y416D02*
X3015Y416D01*
X2887Y415D02*
X2937Y415D01*
X2965Y415D02*
X3015Y415D01*
X2888Y414D02*
X2938Y414D01*
X2964Y414D02*
X3014Y414D01*
X2888Y413D02*
X2939Y413D01*
X2963Y413D02*
X3014Y413D01*
X2888Y412D02*
X2940Y412D01*
X2962Y412D02*
X3014Y412D01*
X2889Y411D02*
X2941Y411D01*
X2961Y411D02*
X3014Y411D01*
X2889Y410D02*
X2942Y410D01*
X2960Y410D02*
X3013Y410D01*
X2889Y409D02*
X2944Y409D01*
X2959Y409D02*
X3013Y409D01*
X2890Y408D02*
X2946Y408D01*
X2956Y408D02*
X3012Y408D01*
X2890Y407D02*
X3012Y407D01*
X2891Y406D02*
X3011Y406D01*
X2891Y405D02*
X3011Y405D01*
X2892Y404D02*
X3010Y404D01*
X2892Y403D02*
X3010Y403D01*
X2893Y402D02*
X3009Y402D01*
X2894Y401D02*
X3008Y401D01*
X2895Y400D02*
X3008Y400D01*
X2895Y399D02*
X3007Y399D01*
X2896Y398D02*
X3006Y398D01*
X2897Y397D02*
X3005Y397D01*
X2898Y396D02*
X3004Y396D01*
X2900Y395D02*
X3002Y395D01*
X2901Y394D02*
X3001Y394D01*
X2903Y393D02*
X3000Y393D01*
X2904Y392D02*
X2998Y392D01*
X2906Y391D02*
X2996Y391D01*
X2908Y390D02*
X2994Y390D01*
X2911Y389D02*
X2991Y389D01*
X2915Y388D02*
X2987Y388D01*
X2918Y357D02*
X2985Y357D01*
X2913Y356D02*
X2989Y356D01*
X2910Y355D02*
X2993Y355D01*
X2907Y354D02*
X2995Y354D01*
X2905Y353D02*
X2997Y353D01*
X2903Y352D02*
X2999Y352D01*
X2902Y351D02*
X3000Y351D01*
X2900Y350D02*
X3002Y350D01*
X2899Y349D02*
X3003Y349D01*
X2898Y348D02*
X3004Y348D01*
X2897Y347D02*
X3005Y347D01*
X2896Y346D02*
X3006Y346D01*
X2895Y345D02*
X3007Y345D01*
X2894Y344D02*
X3008Y344D01*
X2893Y343D02*
X3009Y343D01*
X2893Y342D02*
X3009Y342D01*
X2892Y341D02*
X3010Y341D01*
X2891Y340D02*
X3011Y340D01*
X2891Y339D02*
X3011Y339D01*
X2890Y338D02*
X3012Y338D01*
X2890Y337D02*
X2948Y337D01*
X2954Y337D02*
X3012Y337D01*
X2889Y336D02*
X2944Y336D01*
X2958Y336D02*
X3013Y336D01*
X2889Y335D02*
X2943Y335D01*
X2960Y335D02*
X3013Y335D01*
X2889Y334D02*
X2941Y334D01*
X2961Y334D02*
X3013Y334D01*
X2888Y333D02*
X2940Y333D01*
X2962Y333D02*
X3014Y333D01*
X2888Y332D02*
X2939Y332D01*
X2963Y332D02*
X3014Y332D01*
X2888Y331D02*
X2938Y331D01*
X2964Y331D02*
X3014Y331D01*
X2887Y330D02*
X2938Y330D01*
X2964Y330D02*
X3015Y330D01*
X2887Y329D02*
X2937Y329D01*
X2965Y329D02*
X3015Y329D01*
X2887Y328D02*
X2937Y328D01*
X2965Y328D02*
X3015Y328D01*
X2887Y327D02*
X2936Y327D01*
X2966Y327D02*
X3015Y327D01*
X2887Y326D02*
X2936Y326D01*
X2966Y326D02*
X3015Y326D01*
X2887Y325D02*
X2936Y325D01*
X2966Y325D02*
X3015Y325D01*
X2887Y324D02*
X2936Y324D01*
X2966Y324D02*
X3015Y324D01*
X2887Y323D02*
X2936Y323D01*
X2966Y323D02*
X3016Y323D01*
X2887Y322D02*
X2936Y322D01*
X2967Y322D02*
X3016Y322D01*
X2887Y321D02*
X2936Y321D01*
X2966Y321D02*
X3015Y321D01*
X2887Y320D02*
X2936Y320D01*
X2966Y320D02*
X3015Y320D01*
X2887Y319D02*
X2936Y319D01*
X2966Y319D02*
X3015Y319D01*
X2887Y318D02*
X2936Y318D01*
X2966Y318D02*
X3015Y318D01*
X2887Y317D02*
X2936Y317D01*
X2966Y317D02*
X3015Y317D01*
X2887Y316D02*
X2937Y316D01*
X2965Y316D02*
X3015Y316D01*
X2887Y315D02*
X2937Y315D01*
X2965Y315D02*
X3015Y315D01*
X2888Y314D02*
X2938Y314D01*
X2964Y314D02*
X3014Y314D01*
X2888Y313D02*
X2939Y313D01*
X2963Y313D02*
X3014Y313D01*
X2888Y312D02*
X2940Y312D01*
X2962Y312D02*
X3014Y312D01*
X2889Y311D02*
X2941Y311D01*
X2961Y311D02*
X3014Y311D01*
X2889Y310D02*
X2942Y310D01*
X2960Y310D02*
X3013Y310D01*
X2889Y309D02*
X2944Y309D01*
X2959Y309D02*
X3013Y309D01*
X2890Y308D02*
X2946Y308D01*
X2956Y308D02*
X3012Y308D01*
X2890Y307D02*
X3012Y307D01*
X2891Y306D02*
X3011Y306D01*
X2891Y305D02*
X3011Y305D01*
X2892Y304D02*
X3010Y304D01*
X2892Y303D02*
X3010Y303D01*
X2893Y302D02*
X3009Y302D01*
X2894Y301D02*
X3008Y301D01*
X2895Y300D02*
X3008Y300D01*
X2895Y299D02*
X3007Y299D01*
X2896Y298D02*
X3006Y298D01*
X2897Y297D02*
X3005Y297D01*
X2898Y296D02*
X3004Y296D01*
X2900Y295D02*
X3002Y295D01*
X2901Y294D02*
X3001Y294D01*
X2903Y293D02*
X3000Y293D01*
X2904Y292D02*
X2998Y292D01*
X2906Y291D02*
X2996Y291D01*
X2908Y290D02*
X2994Y290D01*
X2911Y289D02*
X2991Y289D01*
X2915Y288D02*
X2987Y288D01*
D02*
G04 End of Mask0*
M02*